<svg width="78" height="31" viewBox="0 0 78 31" fill="none" xmlns="http://www.w3.org/2000/svg">
<path d="M12.3466 26.0861C13.4105 26.0861 14.2824 25.9651 14.9622 25.7229C15.6567 25.4666 16.2109 25.1319 16.6246 24.7188C17.0384 24.3058 17.3266 23.8357 17.4891 23.3088C17.6517 22.7675 17.7329 22.212 17.7329 21.6423C17.7329 21.0156 17.6369 20.453 17.4448 19.9545C17.2527 19.456 16.9423 19.0358 16.5138 18.694C16.0853 18.3379 15.5237 18.0673 14.8292 17.8822C14.1494 17.697 13.3071 17.6044 12.3022 17.6044H6.64985V26.0861H12.3466ZM6.64985 4.87112V13.246H11.0166C11.9476 13.246 12.7751 13.1748 13.4992 13.0324C14.2233 12.8757 14.8292 12.6336 15.3168 12.306C15.8045 11.9784 16.1739 11.5511 16.4251 11.0241C16.6911 10.4829 16.8241 9.83483 16.8241 9.07995C16.8241 8.31082 16.7133 7.65564 16.4916 7.1144C16.2847 6.57317 15.9596 6.13876 15.5163 5.81117C15.073 5.48358 14.5115 5.24857 13.8317 5.10613C13.1519 4.94946 12.3466 4.87112 11.4156 4.87112H6.64985ZM11.4156 0C13.5731 0 15.4129 0.199403 16.935 0.598208C18.4718 0.982771 19.7205 1.53825 20.681 2.26465C21.6564 2.9768 22.3657 3.84562 22.809 4.87112C23.2523 5.89662 23.474 7.04319 23.474 8.31082C23.474 9.02297 23.3631 9.70664 23.1415 10.3618C22.9346 11.017 22.6021 11.6366 22.144 12.2205C21.7007 12.7903 21.1244 13.3101 20.415 13.7802C19.7057 14.2502 18.8634 14.649 17.8881 14.9766C20.0752 15.4751 21.6933 16.2869 22.7425 17.4121C23.7917 18.5373 24.3163 19.9972 24.3163 21.7919C24.3163 23.1022 24.0503 24.32 23.5183 25.4452C23.0011 26.5704 22.2401 27.5461 21.2352 28.3722C20.2303 29.1983 18.989 29.8463 17.5113 30.3163C16.0483 30.7721 14.3637 31 12.4574 31H0V0H11.4156Z" fill="white"/>
<path d="M33.8387 11.5369C34.2968 11.1096 34.7697 10.7179 35.2574 10.3618C35.7598 10.0057 36.2844 9.69952 36.8312 9.44314C37.3927 9.18677 37.9912 8.98736 38.6266 8.84493C39.2768 8.7025 39.9788 8.63129 40.7324 8.63129C41.9737 8.63129 43.0746 8.83781 44.0352 9.25086C44.9957 9.66391 45.8011 10.2408 46.4513 10.9814C47.1163 11.722 47.6113 12.6051 47.9364 13.6306C48.2763 14.6561 48.4463 15.7813 48.4463 17.0062V31H42.3506V17.0062C42.3506 15.7813 42.055 14.8341 41.4639 14.1647C40.8728 13.481 40.0009 13.1392 38.8483 13.1392C37.9912 13.1392 37.1858 13.3173 36.4322 13.6733C35.6785 14.0294 34.9618 14.5279 34.2821 15.1688V31H28.1642V8.97312H31.9325C32.7009 8.97312 33.2107 9.31496 33.4619 9.99862L33.8387 11.5369Z" fill="white"/>
<path d="M66.0303 26.0861C67.0942 26.0861 67.9661 25.9651 68.6459 25.7229C69.3404 25.4666 69.8946 25.1319 70.3083 24.7188C70.7221 24.3058 71.0103 23.8357 71.1728 23.3088C71.3354 22.7675 71.4166 22.212 71.4166 21.6423C71.4166 21.0156 71.3206 20.453 71.1285 19.9545C70.9364 19.456 70.626 19.0358 70.1975 18.694C69.769 18.3379 69.2074 18.0673 68.5129 17.8822C67.8331 17.697 66.9908 17.6044 65.9859 17.6044H60.3336V26.0861H66.0303ZM60.3336 4.87112V13.246H64.7003C65.6313 13.246 66.4588 13.1748 67.1829 13.0324C67.907 12.8757 68.5129 12.6336 69.0005 12.306C69.4882 11.9784 69.8576 11.5511 70.1088 11.0241C70.3748 10.4829 70.5078 9.83483 70.5078 9.07995C70.5078 8.31082 70.397 7.65564 70.1753 7.1144C69.9685 6.57317 69.6433 6.13876 69.2 5.81117C68.7567 5.48358 68.1952 5.24857 67.5154 5.10613C66.8356 4.94946 66.0303 4.87112 65.0993 4.87112H60.3336ZM65.0993 0C67.2568 0 69.0966 0.199403 70.6187 0.598208C72.1555 0.982771 73.4042 1.53825 74.3647 2.26465C75.3401 2.9768 76.0494 3.84562 76.4927 4.87112C76.936 5.89662 77.1577 7.04319 77.1577 8.31082C77.1577 9.02297 77.0469 9.70664 76.8252 10.3618C76.6183 11.017 76.2858 11.6366 75.8277 12.2205C75.3844 12.7903 74.8081 13.3101 74.0987 13.7802C73.3894 14.2502 72.5471 14.649 71.5718 14.9766C73.7589 15.4751 75.377 16.2869 76.4262 17.4121C77.4754 18.5373 78 19.9972 78 21.7919C78 23.1022 77.734 24.32 77.202 25.4452C76.6848 26.5704 75.9238 27.5461 74.9189 28.3722C73.914 29.1983 72.6727 29.8463 71.195 30.3163C69.732 30.7721 68.0474 31 66.1411 31H53.6837V0H65.0993Z" fill="white"/>
</svg>
