<svg width="216" height="287" viewBox="0 0 216 287" fill="none" xmlns="http://www.w3.org/2000/svg">
<path fill-rule="evenodd" clip-rule="evenodd" d="M2.85463 119.629C1.45381 119.413 0 118.232 0 116.769V91.0305C0 89.5682 1.45381 88.3871 2.85463 88.1706V73.8713C1.45381 73.6548 0 72.4737 0 71.0114V60.5252C0 59.0628 1.45381 57.8817 2.85463 57.6653V34.7863C2.85463 15.9404 17.325 0.467773 36.1586 0.467773H179.841C198.675 0.467773 213.145 15.9404 213.145 34.7863V98.6568C214.546 98.8733 216 100.054 216 101.517V146.321C216 147.784 214.546 148.965 213.145 149.181V395.131C213.145 413.977 198.675 429.449 179.841 429.449H36.1586C17.325 429.449 2.85463 413.977 2.85463 395.131V159.668C1.45381 159.451 0 158.27 0 156.808V130.115C0 128.653 1.45381 127.472 2.85463 127.256V119.629Z" fill="#232632"/>
</svg>
