<svg width="24" height="24" viewBox="0 0 24 24" fill="none" xmlns="http://www.w3.org/2000/svg">
<g id="Product Card - Vertical/Icons/Property 22">
<path id="Vector" d="M12.0004 20.4001C11.9033 20.4001 11.8062 20.3747 11.7192 20.3239C11.6247 20.2687 9.37951 18.9499 7.10215 16.9627C5.75238 15.7849 4.67493 14.6168 3.89981 13.4907C2.89676 12.0337 2.39235 10.6321 2.40049 9.32498C2.41001 7.804 2.94847 6.37361 3.9168 5.29727C4.90147 4.2028 6.21554 3.6001 7.61702 3.6001C9.41315 3.6001 11.0553 4.61801 12.0004 6.2305C12.9455 4.61805 14.5877 3.6001 16.3838 3.6001C17.7079 3.6001 18.9711 4.14392 19.941 5.1314C21.0054 6.21506 21.6102 7.74621 21.6003 9.33219C21.5921 10.637 21.0782 12.0365 20.073 13.4915C19.2955 14.617 18.2195 15.7846 16.875 16.962C14.606 18.949 12.377 20.2678 12.2832 20.323C12.1958 20.3744 12.098 20.4001 12.0004 20.4001Z" fill="#232632"/>
</g>
</svg>
