<svg width="85" height="10" viewBox="0 0 85 10" fill="none" xmlns="http://www.w3.org/2000/svg">
<path fill-rule="evenodd" clip-rule="evenodd" d="M80 10C77.2386 10 75 7.76142 75 5C75 2.23858 77.2386 0 80 0C82.7614 0 85 2.23858 85 5C85 7.76142 82.7614 10 80 10ZM55 10C52.2386 10 50 7.76142 50 5C50 2.23858 52.2386 0 55 0C57.7614 0 60 2.23858 60 5C60 7.76142 57.7614 10 55 10ZM5 10C2.23858 10 0 7.76142 0 5C0 2.23858 2.23858 0 5 0C7.76142 0 10 2.23858 10 5C10 7.76142 7.76142 10 5 10Z" fill="white"/>
<path d="M34.5 5C34.5 7.48528 32.4853 9.5 30 9.5C27.5147 9.5 25.5 7.48528 25.5 5C25.5 2.51472 27.5147 0.5 30 0.5C32.4853 0.5 34.5 2.51472 34.5 5Z" stroke="white"/>
</svg>
