<svg width="168" height="56" viewBox="0 0 168 56" fill="none" xmlns="http://www.w3.org/2000/svg">
<rect width="168" height="56" rx="5" fill="white"/>
<path fill-rule="evenodd" clip-rule="evenodd" d="M62.8616 35.8876H56.9339L55.5104 40.1746H52.9996L58.6143 24.3139H61.2229L66.8375 40.1746H64.284L62.8616 35.8876ZM57.5478 33.9094H62.2465L59.9302 26.952H59.8654L57.5478 33.9094ZM78.9633 34.3933C78.9633 37.9868 77.0775 40.2955 74.2316 40.2955C72.7606 40.374 71.375 39.5882 70.6642 38.2724H70.6104V44H68.283V28.6109H70.5358V30.5342H70.5786C71.321 29.2266 72.7081 28.4412 74.1888 28.4899C77.0664 28.4899 78.9633 30.8099 78.9633 34.3933ZM76.5711 34.3933C76.5711 32.0522 75.3849 30.513 73.5749 30.513C71.7967 30.513 70.6006 32.0846 70.6006 34.3933C70.6006 36.7233 71.7967 38.2837 73.5749 38.2837C75.3849 38.2837 76.5711 36.7557 76.5711 34.3933ZM91.4425 34.3933C91.4425 37.9868 89.5566 40.2955 86.7108 40.2955C85.2398 40.374 83.8542 39.5882 83.1434 38.2724H83.0895V44H80.7622V28.6109H83.0149V30.5342H83.0577C83.8001 29.2266 85.1872 28.4412 86.668 28.4899C89.5456 28.4899 91.4425 30.8099 91.4425 34.3933ZM89.0503 34.3933C89.0503 32.0522 87.864 30.513 86.0541 30.513C84.2759 30.513 83.0798 32.0846 83.0798 34.3933C83.0798 36.7233 84.2759 38.2837 86.0541 38.2837C87.8641 38.2837 89.0503 36.7557 89.0503 34.3933ZM99.6902 35.7554C99.8626 37.3282 101.361 38.3609 103.408 38.3609C105.37 38.3609 106.781 37.3282 106.781 35.91C106.781 34.6789 105.93 33.9418 103.914 33.4366L101.899 32.9414C99.0433 32.238 97.7175 30.8759 97.7175 28.6657C97.7175 25.9291 100.056 24.0494 103.376 24.0494C106.662 24.0494 108.915 25.9291 108.991 28.6657H106.642C106.501 27.0829 105.218 26.1275 103.343 26.1275C101.468 26.1275 100.185 27.0941 100.185 28.5011C100.185 29.6224 101.005 30.2822 103.009 30.7873L104.723 31.2164C107.913 31.986 109.239 33.2932 109.239 35.6131C109.239 38.5804 106.922 40.4389 103.236 40.4389C99.7868 40.4389 97.4582 38.6241 97.3078 35.7553L99.6902 35.7554ZM114.262 25.8743V28.6109H116.418V30.4905H114.262V36.8655C114.262 37.8558 114.694 38.3173 115.641 38.3173C115.897 38.3128 116.153 38.2944 116.407 38.2624V40.1309C115.981 40.2121 115.548 40.2488 115.114 40.2406C112.819 40.2406 111.924 39.3613 111.924 37.1186V30.4905H110.275V28.6109H111.924V25.8743H114.262ZM117.667 34.3933C117.667 30.755 119.768 28.4687 123.044 28.4687C126.331 28.4687 128.423 30.7549 128.423 34.3933C128.423 38.0417 126.342 40.318 123.044 40.318C119.747 40.318 117.667 38.0417 117.667 34.3933ZM126.051 34.3933C126.051 31.8975 124.93 30.4245 123.044 30.4245C121.158 30.4245 120.038 31.9087 120.038 34.3933C120.038 36.8992 121.158 38.361 123.044 38.361C124.93 38.361 126.051 36.8992 126.051 34.3933ZM130.342 28.6109H132.561V30.5791H132.615C132.925 29.3121 134.063 28.44 135.342 28.4899C135.61 28.4889 135.878 28.5186 136.14 28.5784V30.7986C135.801 30.6931 135.448 30.6446 135.094 30.6552C134.41 30.6269 133.748 30.905 133.281 31.4165C132.815 31.928 132.591 32.6217 132.669 33.3157V40.1745H130.342L130.342 28.6109ZM146.87 36.7782C146.557 38.8774 144.552 40.318 141.988 40.318C138.69 40.318 136.642 38.0641 136.642 34.4482C136.642 30.8211 138.701 28.4687 141.89 28.4687C145.027 28.4687 147 30.6664 147 34.1726V34.9858H138.992V35.1292C138.917 35.9901 139.208 36.8423 139.792 37.469C140.375 38.0956 141.195 38.4364 142.042 38.4046C143.171 38.5126 144.236 37.8511 144.66 36.7782L146.87 36.7782ZM139.003 33.3269L144.671 33.3269C144.713 32.5533 144.437 31.7969 143.909 31.2397C143.381 30.6826 142.65 30.3754 141.89 30.392C141.125 30.3874 140.389 30.6947 139.847 31.2459C139.305 31.797 139.001 32.5462 139.003 33.3269ZM57.2562 12.3755C58.2442 12.3032 59.2119 12.6866 59.893 13.4201C60.5741 14.1537 60.8968 15.1601 60.7722 16.1623C60.7722 18.597 59.482 19.9965 57.2562 19.9965H54.5571V12.3755H57.2562ZM55.7177 18.9188H57.1265C57.8326 18.9618 58.5201 18.6781 58.9982 18.1464C59.4762 17.6146 59.6939 16.8915 59.5908 16.1778C59.6864 15.4671 59.4656 14.7499 58.9887 14.2226C58.5119 13.6952 57.8288 13.4127 57.1265 13.4525H55.7177V18.9188ZM62.0832 17.1183C61.9865 16.0874 62.4712 15.0898 63.334 14.5437C64.1967 13.9977 65.2884 13.9977 66.1512 14.5437C67.0139 15.0898 67.4986 16.0874 67.4019 17.1183C67.5005 18.1503 67.0162 19.1499 66.1527 19.6971C65.2892 20.2443 64.196 20.2443 63.3324 19.6971C62.4689 19.1499 61.9847 18.1503 62.0832 17.1183ZM66.2572 17.1183C66.2572 15.8716 65.7081 15.1426 64.7444 15.1426C63.777 15.1426 63.2328 15.8716 63.2328 17.1183C63.2328 18.375 63.7771 19.0984 64.7444 19.0984C65.7081 19.0984 66.2572 18.37 66.2572 17.1183ZM74.4719 19.9964H73.3174L72.1519 15.7606H72.0639L70.9033 19.9964H69.7598L68.2054 14.2451H69.3342L70.3444 18.6337H70.4276L71.5869 14.2451H72.6546L73.814 18.6337H73.902L74.9073 14.2451H76.0202L74.4719 19.9964ZM77.3276 14.2451H78.3989V15.1588H78.482C78.7712 14.4861 79.447 14.0746 80.1648 14.1341C80.7206 14.0915 81.2653 14.309 81.645 14.7251C82.0247 15.1412 82.1983 15.7109 82.1167 16.2732V19.9964H81.0038V16.5583C81.0038 15.634 80.61 15.1744 79.7869 15.1744C79.41 15.1565 79.0441 15.3074 78.7853 15.5875C78.5265 15.8676 78.4005 16.2491 78.4404 16.6318V19.9964H77.3275L77.3276 14.2451ZM83.89 12H85.0029V19.9964H83.89V12ZM86.55 17.1183C86.4534 16.0874 86.9381 15.0897 87.8009 14.5436C88.6638 13.9976 89.7555 13.9976 90.6183 14.5436C91.4812 15.0897 91.9659 16.0874 91.8693 17.1183C91.9677 18.1503 91.4834 19.1499 90.6198 19.6971C89.7562 20.2443 88.663 20.2443 87.7995 19.6971C86.9359 19.1499 86.4516 18.1503 86.55 17.1183ZM90.724 17.1183C90.724 15.8716 90.1749 15.1426 89.2112 15.1426C88.2438 15.1426 87.6996 15.8716 87.6996 17.1183C87.6996 18.375 88.2438 19.0984 89.2112 19.0984C90.1749 19.0984 90.724 18.37 90.724 17.1183ZM93.0409 18.37C93.0409 17.3347 93.7967 16.7379 95.1383 16.6531L96.6658 16.5633V16.0668C96.6658 15.4594 96.272 15.1164 95.5113 15.1164C94.89 15.1164 94.4596 15.349 94.336 15.7556H93.2586C93.3723 14.7678 94.2834 14.1342 95.5627 14.1342C96.9764 14.1342 97.7738 14.852 97.7738 16.0668V19.9964H96.7025V19.1882H96.6144C96.2506 19.7784 95.6035 20.1234 94.9206 20.0912C94.4419 20.142 93.9645 19.9839 93.6063 19.6559C93.2482 19.328 93.0428 18.8608 93.0409 18.37ZM96.6658 17.8785V17.3977L95.2887 17.4875C94.5121 17.5405 94.1599 17.8099 94.1599 18.3169C94.1599 18.8346 94.6002 19.1358 95.2056 19.1358C95.564 19.1728 95.9218 19.0599 96.197 18.8229C96.4723 18.5859 96.6414 18.2451 96.6658 17.8785ZM99.2365 17.1183C99.2365 15.301 100.152 14.1497 101.577 14.1497C102.297 14.1159 102.97 14.5091 103.307 15.1587H103.39V12H104.503V19.9964H103.436V19.0878H103.348C102.987 19.732 102.305 20.1185 101.577 20.0912C100.143 20.0913 99.2365 18.94 99.2365 17.1183ZM100.386 17.1183C100.386 18.3382 100.95 19.0722 101.893 19.0722C102.831 19.0722 103.41 18.3276 103.41 17.1233C103.41 15.9246 102.825 15.1694 101.893 15.1694C100.956 15.1694 100.386 15.9084 100.386 17.1183ZM109.107 17.1183C109.01 16.0874 109.495 15.0898 110.358 14.5437C111.221 13.9977 112.312 13.9977 113.175 14.5437C114.038 15.0898 114.522 16.0874 114.426 17.1183C114.524 18.1503 114.04 19.1499 113.177 19.6971C112.313 20.2443 111.22 20.2443 110.356 19.6971C109.493 19.1499 109.009 18.1503 109.107 17.1183ZM113.281 17.1183C113.281 15.8716 112.732 15.1426 111.768 15.1426C110.801 15.1426 110.257 15.8716 110.257 17.1183C110.257 18.375 110.801 19.0984 111.768 19.0984C112.732 19.0984 113.281 18.37 113.281 17.1183ZM115.919 14.2451H116.99V15.1588H117.074C117.363 14.4861 118.038 14.0746 118.756 14.1341C119.312 14.0915 119.857 14.309 120.236 14.7251C120.616 15.1412 120.79 15.7109 120.708 16.2732V19.9964H119.595V16.5583C119.595 15.634 119.201 15.1744 118.378 15.1744C118.001 15.1565 117.636 15.3074 117.377 15.5875C117.118 15.8676 116.992 16.2491 117.032 16.6318V19.9964H115.919V14.2451ZM126.997 12.8133V14.2713H128.218V15.2274H126.997V18.1847C126.997 18.7872 127.24 19.051 127.794 19.051C127.936 19.0505 128.078 19.0418 128.218 19.0248V19.9702C128.019 20.0067 127.816 20.0261 127.613 20.0282C126.375 20.0282 125.883 19.5842 125.883 18.4753V15.2273H124.987V14.2713H125.883V12.8133H126.997ZM129.739 12H130.842V15.1694H130.93C131.233 14.4908 131.92 14.0788 132.649 14.1391C133.202 14.1084 133.739 14.3307 134.115 14.7453C134.49 15.16 134.665 15.7238 134.591 16.2832V19.9964H133.477V16.5632C133.477 15.6446 133.058 15.1793 132.271 15.1793C131.884 15.147 131.503 15.2905 131.229 15.5716C130.955 15.8528 130.817 16.2428 130.852 16.6374V19.9964H129.739L129.739 12ZM141.08 18.4435C140.768 19.5284 139.739 20.2293 138.637 20.1074C137.885 20.1277 137.162 19.8098 136.661 19.2381C136.159 18.6665 135.929 17.8988 136.032 17.1389C135.932 16.3768 136.161 15.6079 136.66 15.0314C137.159 14.455 137.878 14.1276 138.632 14.1341C140.201 14.1341 141.148 15.2274 141.148 17.0335V17.4295H137.166V17.4931C137.13 17.9199 137.273 18.342 137.559 18.6557C137.845 18.9694 138.248 19.1455 138.667 19.1407C139.212 19.2074 139.742 18.932 140.009 18.4435L141.08 18.4435ZM137.166 16.5901H140.014C140.042 16.1997 139.908 15.8154 139.643 15.5316C139.379 15.2479 139.01 15.0912 138.626 15.1002C138.237 15.0952 137.863 15.2506 137.588 15.5311C137.313 15.8116 137.161 16.1935 137.166 16.5901ZM40.3132 28.1667C40.3161 30.8461 41.9251 33.2643 44.3996 34.308C43.9237 35.8499 43.2063 37.3069 42.2741 38.6253C41.0221 40.493 39.7094 42.3178 37.626 42.3515C35.6015 42.3981 34.9212 41.1633 32.5992 41.1633C30.2555 41.1633 29.5303 42.3178 27.5887 42.3981C25.6045 42.4714 24.0881 40.4046 22.7906 38.5544C20.1973 34.7759 18.1779 27.9059 20.8852 23.2314C22.1565 20.9531 24.5335 19.5074 27.1465 19.4232C29.1324 19.3825 30.9767 20.7608 32.1977 20.7608C33.3956 20.7608 35.6744 19.112 38.025 19.358C40.2593 19.4278 42.3298 20.5441 43.612 22.3702C41.5888 23.6107 40.3438 25.7983 40.3132 28.1667ZM36.4894 16.873C35.3873 18.2401 33.7173 19.0275 31.9585 19.0095C31.8467 17.2954 32.4226 15.6072 33.5595 14.3169C34.7108 13.009 36.314 12.1818 38.0495 12C38.1851 13.7649 37.6254 15.513 36.4894 16.873Z" fill="#232632"/>
</svg>
