<svg width="185" height="56" viewBox="0 0 185 56" fill="none" xmlns="http://www.w3.org/2000/svg">
<rect width="185" height="56" rx="5" fill="white"/>
<path fill-rule="evenodd" clip-rule="evenodd" d="M68.0153 15.2409C68.0574 16.1693 67.7255 17.0747 67.0971 17.7458C66.3949 18.4921 65.4155 18.8974 64.4036 18.8606C62.8517 18.8481 61.4582 17.8851 60.8675 16.4168C60.2768 14.9486 60.6041 13.2611 61.698 12.1347C62.4087 11.3924 63.3882 10.9843 64.4036 11.0075C64.9212 11.0057 65.4337 11.1123 65.9095 11.3206C66.3525 11.5034 66.7469 11.791 67.0604 12.1598L66.4115 12.8236C65.9161 12.2207 65.1724 11.8913 64.4036 11.9343C63.6309 11.9304 62.89 12.2488 62.3518 12.816C61.8135 13.3832 61.5244 14.1502 61.551 14.9403C61.5346 16.1341 62.2219 17.2208 63.2931 17.6948C64.3643 18.1688 65.6091 17.9369 66.4482 17.1071C66.8249 16.6894 67.0422 16.147 67.0604 15.579H64.4036V14.6773H67.9663C67.999 14.8633 68.0154 15.0519 68.0153 15.2409ZM73.6226 12.1097H70.317V14.4894H73.3287V15.3912H70.317V17.7709H73.6226V18.6977H69.3375V11.1828H73.6226V12.1097ZM77.6382 18.6977H76.6955V12.1097H74.6387V11.1828H79.744V12.1097H77.6382V18.6977ZM83.3434 18.6977V11.1828H84.2861V18.6977H83.3434ZM88.4732 18.6977H87.5305V12.1097H85.4737V11.1828H90.5178V12.1097H88.4732V18.6977ZM100.08 17.7208C98.5895 19.2366 96.1826 19.2366 94.6926 17.7208C93.2483 16.1567 93.2483 13.7113 94.6926 12.1472C95.4052 11.413 96.3747 11 97.3861 11C98.3974 11 99.367 11.413 100.08 12.1472C101.53 13.7088 101.53 16.1592 100.08 17.7208ZM95.3905 17.0945C96.494 18.2187 98.2782 18.2187 99.3817 17.0945C100.465 15.8723 100.465 14.0082 99.3817 12.786C98.2782 11.6618 96.494 11.6618 95.3905 12.786C94.3067 14.0082 94.3067 15.8723 95.3905 17.0945ZM102.491 18.6977V11.1828H103.642L107.217 17.0319V11.1828H108.16V18.6977H107.18L103.446 12.5731V18.6977H102.491ZM93.3826 29.657C94.7729 29.6297 96.1144 30.1809 97.0999 31.1844C98.0854 32.1879 98.6305 33.5577 98.6104 34.98C98.6103 37.9166 96.2857 40.2984 93.4153 40.303C90.5448 40.3076 88.2129 37.9332 88.2039 34.9967C88.1949 32.0601 90.5122 29.6708 93.3826 29.657ZM93.3826 38.2114C94.1947 38.1922 94.9647 37.8382 95.518 37.2297C96.0712 36.6213 96.3608 35.81 96.3209 34.98C96.3178 33.6532 95.5221 32.4632 94.3146 31.9792C93.107 31.4952 91.7329 31.8155 90.8495 32.787C89.9662 33.7585 89.7531 35.1836 90.3121 36.3809C90.8712 37.5781 92.0888 38.304 93.3826 38.2114ZM81.9845 29.657H81.9722C83.3625 29.6297 84.704 30.1809 85.6895 31.1844C86.675 32.1879 87.2201 33.5577 87.2 34.98C87.2 37.9182 84.8729 40.3008 82.0008 40.3031C79.1287 40.3054 76.798 37.9266 76.7935 34.9884C76.789 32.0502 79.1124 29.6639 81.9845 29.657ZM81.9845 38.2114H81.9722C82.7843 38.1922 83.5543 37.8382 84.1076 37.2297C84.6608 36.6213 84.9504 35.81 84.9105 34.98C84.907 33.6521 84.1098 32.4616 82.9007 31.9787C81.6916 31.4957 80.3168 31.8187 79.4347 32.7928C78.5526 33.767 78.3428 35.194 78.9058 36.3904C79.4688 37.5869 80.69 38.3092 81.9845 38.2114ZM68.4071 31.2977L75.8385 31.2351C75.9239 31.7017 75.9649 32.1757 75.961 32.6504C76.0186 34.599 75.3337 36.4942 74.0511 37.9359C72.5853 39.5061 70.5273 40.351 68.4071 40.253C65.443 40.371 62.6534 38.8206 61.1371 36.2124C59.6207 33.6042 59.6207 30.3564 61.1371 27.7483C62.6534 25.1401 65.443 23.5897 68.4071 23.7077C70.4893 23.6892 72.49 24.5341 73.9531 26.0498L72.3983 27.6405C71.3255 26.5809 69.8858 25.9999 68.3948 26.0248C65.1493 26.0248 62.5182 28.7164 62.5182 32.0367C62.5182 35.357 65.1493 38.0486 68.3948 38.0486C69.921 38.1108 71.4017 37.5103 72.4717 36.3953C73.1816 35.616 73.6131 34.6141 73.696 33.5522H68.4071V31.2977ZM123.88 33.0512L124.137 33.6148L117.171 36.5582C117.607 37.5754 118.607 38.2162 119.693 38.1739C120.74 38.1766 121.712 37.6152 122.251 36.6959L124.027 37.9484C123.06 39.4282 121.432 40.3127 119.693 40.3031C118.31 40.3238 116.978 39.7684 116.004 38.7645C115.03 37.7606 114.496 36.3945 114.526 34.98C114.442 33.5979 114.92 32.2417 115.848 31.2333C116.775 30.2249 118.07 29.6543 119.423 29.657C121.453 29.7334 123.226 31.0838 123.88 33.0512ZM116.779 34.8297L121.431 32.8508C121.065 32.1127 120.304 31.6692 119.497 31.7236C118.731 31.7589 118.011 32.1081 117.5 32.6925C116.989 33.2768 116.729 34.0471 116.779 34.8297ZM111.123 39.99V24.3339H113.412V39.99H111.123ZM107.376 30.8468V29.9701H109.482V39.4514C109.482 43.3842 107.266 44.9999 104.585 44.9999C102.564 45.0123 100.738 43.7685 99.9693 41.8562L101.965 41.0045C102.382 42.1205 103.417 42.8678 104.585 42.8957C106.299 42.8957 107.364 41.8061 107.364 39.7645V39.0005H107.291C106.603 39.8125 105.598 40.2711 104.548 40.253C101.769 40.1151 99.5853 37.77 99.5853 34.9237C99.5853 32.0774 101.769 29.7322 104.548 29.5943C105.595 29.5929 106.593 30.0486 107.291 30.8468H107.376ZM104.756 38.2114H104.744C105.54 38.1801 106.288 37.8171 106.816 37.2067C107.343 36.5963 107.603 35.7917 107.535 34.98C107.596 34.1721 107.335 33.3734 106.812 32.765C106.288 32.1566 105.547 31.7901 104.756 31.7486C103.119 31.8962 101.864 33.2988 101.864 34.98C101.864 36.6612 103.119 38.0638 104.756 38.2114ZM134.617 24.3339C136.395 24.2032 138.096 25.0998 139.024 26.6573C139.953 28.2148 139.953 30.1723 139.024 31.7298C138.096 33.2873 136.395 34.1839 134.617 34.0532H131.421V39.99H129.132V24.3339H134.617ZM134.605 31.8488L134.654 31.8864C136.104 31.8864 137.28 30.6836 137.28 29.1998C137.28 27.7161 136.104 26.5132 134.654 26.5132H131.409V31.8488H134.605ZM148.721 29.5943L148.782 29.6319C151.39 29.6319 153.422 31.2226 153.422 33.9655V39.99H151.218V38.7375H151.145C150.508 39.7504 149.381 40.3267 148.206 40.2405C147.253 40.3125 146.312 39.9872 145.598 39.3384C144.883 38.6897 144.455 37.7727 144.411 36.7961C144.411 34.5291 146.627 33.2767 148.819 33.2767C149.651 33.2731 150.471 33.4796 151.206 33.8778V33.715C151.148 33.1133 150.855 32.5608 150.395 32.1816C149.934 31.8024 149.344 31.6284 148.757 31.6985C147.902 31.6269 147.085 32.0789 146.676 32.8508L144.644 31.9866C145.416 30.4299 147.017 29.4902 148.721 29.5943ZM148.439 38.1739L148.5 38.2114C149.879 38.177 151.023 37.1085 151.181 35.7065C150.546 35.3437 149.827 35.1621 149.1 35.1804C147.949 35.1804 146.652 35.5937 146.652 36.8462C146.652 37.7856 147.692 38.1739 148.439 38.1739ZM161.453 29.9701H164L157.731 44.7369H155.344L157.67 39.4639L153.593 29.9701H156.042L158.76 36.7586H158.833L161.453 29.9701ZM140.873 39.99V24.3339H143.162V39.99H140.873ZM50.2198 26.9583C50.5293 27.1373 50.7142 27.4576 50.7142 27.8151C50.7142 28.1726 50.5292 28.493 50.2197 28.6715L44.6022 31.9138L40.6588 28.1019L44.9736 23.931L50.2198 26.9583ZM44.0831 23.4166L39.9478 27.4144L25.6573 13.6L38.3099 20.0837L44.0831 23.4166ZM25.8674 42.4L39.9478 28.7893L43.7118 32.4282L38.3316 35.5341L25.8674 42.4ZM24.8132 14.1592L39.2367 28.1016L24.7998 42.0574L24.8132 14.1592Z" fill="#232632"/>
</svg>
