<svg width="46" height="12" viewBox="0 0 46 12" fill="none" xmlns="http://www.w3.org/2000/svg">
<path fill-rule="evenodd" clip-rule="evenodd" d="M6 12C2.68629 12 0 9.31371 0 6C0 2.68629 2.68629 0 6 0C9.31371 0 12 2.68629 12 6C12 9.31371 9.31371 12 6 12ZM23 12C19.6863 12 17 9.31371 17 6C17 2.68629 19.6863 0 23 0C26.3137 0 29 2.68629 29 6C29 9.31371 26.3137 12 23 12ZM40 12C36.6863 12 34 9.31371 34 6C34 2.68629 36.6863 0 40 0C43.3137 0 46 2.68629 46 6C46 9.31371 43.3137 12 40 12Z" fill="white"/>
</svg>
