<svg width="232" height="352" viewBox="0 0 232 352" fill="none" xmlns="http://www.w3.org/2000/svg">
<path fill-rule="evenodd" clip-rule="evenodd" d="M3.87741 219.784C2.3912 219.784 0.571289 217.968 0.571289 216.471V184.442C0.571289 182.945 2.3912 181.129 3.87741 181.129V162.353C2.3912 162.353 0.571289 160.537 0.571289 159.04V87.2511C0.571289 85.7539 2.3912 83.9378 3.87741 83.9378V25.0739C3.87741 11.1001 14.3999 0 28.2712 0H204.3C218.171 0 228.694 11.1001 228.694 25.0739V152.413C230.18 152.413 232 154.229 232 155.727V187.756C232 189.253 230.18 191.069 228.694 191.069V471.926C228.694 485.9 218.171 497 204.3 497H28.2712C14.3999 497 3.87741 485.9 3.87741 471.926V219.784Z" fill="#232632"/>
</svg>
